# xmcd CD database file
#
# Track frame offsets:
#	150
#	14524
#	27064
#	38595
#	54014
#	67531
#	84545
#	98241
#	111888
#	126247
#	142114
#	158328
#
# Disc length: 2258 seconds
#
# Revision: 1
# Processed by: cddbd v1.5.2PL0 Copyright (c) Steve Scherf et al.
# Submitted via: CDex 1.60beta1
#
DISCID=8808d00c
DTITLE=Joe Hadgkins - Stories
DYEAR=2000
DGENRE=Country
TTITLE0=BABY TALK (GITCHY G00)
TTITLE1=WEYMOUT
TTITLE2=A WOMAN LIKE YOU
TTITLE3=DUSTY ROAD
TTITLE4=I FOLLOWED MY HEART
TTITLE5=TWO HEARTS IN THE WIND
TTITLE6=BLUE TEARS
TTITLE7=UNTOLD STORIES (DUET WITH TIM O'BRIEN
TTITLE8=LANGUAGE OF LOVE
TTITLE9=MAKING LOVE LAST
TTITLE10=GO THROUGH THE MOTIONS
TTITLE11=ALABAMATAGS
EXTD=YEAR: 2000
EXTT0=
EXTT1=
EXTT2=
EXTT3=
EXTT4=
EXTT5=
EXTT6=
EXTT7=
EXTT8=
EXTT9=
EXTT10=
EXTT11=
PLAYORDER=
